<svg  viewBox="0 0 843 869" fill="none" xmlns="http://www.w3.org/2000/svg">
<path d="M563.419 670.534L523.854 724.754C522.922 726.032 521.536 726.875 520.001 727.099C518.465 727.322 516.907 726.909 515.668 725.947L511.995 723.1L558.589 659.248L562.262 662.095C563.5 663.056 564.318 664.485 564.535 666.068C564.753 667.65 564.351 669.257 563.419 670.534Z" fill="#5661AE"/>
<path d="M526.096 638.783L540.362 650.735L525.869 673.786L509.788 661.132L526.096 638.783Z" fill="#BC775C"/>
<path d="M532.433 644.607L514.665 664.585L510.341 661.069L526.981 639.994L532.433 644.607Z" fill="#93523E" stroke="#93523E"/>
<path d="M538.45 649.252C538.45 649.252 534.442 663.774 521.246 671.213L509.326 719.251C509.704 722.009 512.693 723.78 514.679 724.436C515.117 724.578 515.585 724.576 516.02 724.431C516.456 724.286 516.837 724.005 517.11 723.626L559.404 665.665C560.111 664.698 560.422 663.485 560.269 662.284C560.116 661.085 559.513 659.993 558.588 659.248C554.89 656.261 549.22 651.758 546.764 650.213C542.968 647.824 540.262 647.271 538.45 649.252Z" fill="#1C85E8"/>
<path d="M518.487 681.174L525.27 679.675C525.518 679.62 525.775 679.629 526.018 679.7C526.262 679.772 526.485 679.905 526.668 680.086C526.849 680.267 526.986 680.492 527.064 680.74C527.143 680.988 527.16 681.253 527.116 681.51C527.062 681.825 526.917 682.117 526.7 682.346C526.483 682.574 526.205 682.731 525.9 682.795L517.573 684.527L518.487 681.174Z" fill="white"/>
<path d="M516.886 688.786L523.634 687.27C523.882 687.216 524.139 687.224 524.383 687.296C524.626 687.368 524.849 687.5 525.031 687.681C525.214 687.862 525.35 688.087 525.429 688.336C525.507 688.583 525.525 688.848 525.48 689.106C525.426 689.42 525.281 689.712 525.064 689.941C524.847 690.17 524.569 690.326 524.264 690.39L516.053 692.146L516.886 688.786Z" fill="white"/>
<path d="M514.829 697.073L521.5 695.537C521.748 695.483 522.005 695.491 522.249 695.563C522.492 695.635 522.715 695.767 522.897 695.949C523.08 696.13 523.216 696.354 523.295 696.603C523.373 696.851 523.391 697.115 523.346 697.373C523.292 697.688 523.147 697.979 522.931 698.208C522.714 698.437 522.434 698.594 522.13 698.657L514.017 700.345L514.829 697.073Z" fill="white"/>
<path d="M390.502 575.595L503.423 669.378L529.185 638.432L430.451 542.946L390.502 575.595Z" fill="#1F2D49"/>
<path d="M451.071 562.887V625.898L503.424 669.379L510.943 620.789L451.071 562.887Z" fill="#0D1B33"/>
<path d="M400.523 403.18L381.962 555.76H433.858L478.941 403.945L400.523 403.18Z" fill="#1F2D49"/>
<path d="M445.083 517.961L453.799 442.267H475.23L445.083 517.961Z" fill="#0D1B33"/>
<path d="M491.668 728.223H425.851C424.3 728.223 422.813 727.587 421.716 726.457C420.62 725.327 420.004 723.794 420.004 722.195V717.458H497.514V722.195C497.514 723.794 496.898 725.327 495.802 726.457C494.705 727.587 493.218 728.223 491.668 728.223Z" fill="#5661AE"/>
<path d="M493.847 678.39L493.157 697.327L466.574 699.245L466.717 678.39H493.847Z" fill="#BC775C"/>
<path d="M493.14 687.11L466.973 684.482L467.098 678.807L493.44 679.846L493.14 687.11Z" fill="#93523E" stroke="#93523E"/>
<path d="M493.157 694.86C493.157 694.86 479.49 700.288 465.79 693.889L421.384 712.946C419.473 714.915 419.897 718.442 420.582 720.473C420.735 720.918 421.018 721.303 421.392 721.575C421.766 721.846 422.214 721.991 422.671 721.988H493.029C494.203 721.989 495.331 721.515 496.17 720.668C497.009 719.821 497.491 718.669 497.514 717.458C497.607 712.616 497.689 705.238 497.41 702.286C496.981 697.723 495.782 695.162 493.157 694.86Z" fill="#1C85E8"/>
<path d="M456.409 697.604L461.649 702.29C461.84 702.462 461.988 702.679 462.079 702.923C462.17 703.166 462.201 703.429 462.17 703.689C462.14 703.948 462.047 704.195 461.902 704.409C461.756 704.623 461.562 704.797 461.336 704.914C461.059 705.06 460.746 705.115 460.438 705.074C460.13 705.033 459.841 704.897 459.609 704.685L453.26 698.866L456.409 697.604Z" fill="white"/>
<path d="M449.545 700.86L454.777 705.508C454.969 705.679 455.116 705.896 455.207 706.14C455.298 706.383 455.329 706.646 455.299 706.906C455.268 707.165 455.175 707.412 455.03 707.626C454.884 707.84 454.69 708.014 454.464 708.132C454.187 708.277 453.874 708.333 453.567 708.292C453.258 708.251 452.97 708.115 452.738 707.902L446.439 702.193L449.545 700.86Z" fill="white"/>
<path d="M441.885 704.148L447.086 708.72C447.277 708.892 447.425 709.109 447.516 709.353C447.606 709.597 447.638 709.86 447.607 710.119C447.576 710.378 447.484 710.625 447.339 710.839C447.193 711.053 446.999 711.227 446.773 711.345C446.496 711.49 446.184 711.545 445.875 711.504C445.567 711.463 445.278 711.327 445.046 711.115L438.86 705.446L441.885 704.148Z" fill="white"/>
<path d="M510.423 403.945C509.997 411.683 509.997 419.439 510.423 427.176C512.149 452.188 506.632 525.226 506.677 534.837C506.721 544.448 500.58 679.813 500.58 679.813H463.268C463.268 679.813 453.731 563.479 453.511 550.165C453.29 536.851 451.071 404.492 451.071 404.492L510.423 403.945Z" fill="#1F2D49"/>
<path d="M399.399 412.419L510.424 427.176V403.945L399.975 407.689L399.399 412.419Z" fill="#0D1B33"/>
<path d="M407.91 582.508C422.241 582.508 433.858 570.533 433.858 555.76C433.858 540.987 422.241 529.011 407.91 529.011C393.579 529.011 381.962 540.987 381.962 555.76C381.962 570.533 393.579 582.508 407.91 582.508Z" fill="#1F2D49"/>
<path d="M485.14 420.8C485.14 420.8 480.157 430.514 478.94 431.629C477.725 432.743 457.682 435.292 453.8 436.725C449.918 438.158 448.064 440.325 448.064 442.267H495.181C495.181 442.267 496.401 441.096 497.279 437.362C498.158 433.628 499.694 432.044 499.694 432.044L485.14 420.8Z" fill="#BC775C"/>
<path d="M417.417 267.762C420.516 251.992 413.228 252.399 410.803 249.891C410.803 249.891 401.706 242.157 394.773 249.367C387.435 256.992 345.372 316.229 345.372 316.229L371.691 341.182L376.638 335.096L389.453 319.341L403.159 302.502L404.862 300.586L423.352 278.997C423.352 278.997 415.664 276.064 417.417 267.762Z" fill="#5661AE"/>
<path d="M428.424 270.449C431.973 259.53 426.262 247.713 415.669 244.056C405.077 240.399 393.614 246.286 390.066 257.205C386.519 268.124 392.229 279.94 402.821 283.597C413.414 287.255 424.877 281.368 428.424 270.449Z" fill="#5661AE"/>
<path d="M404.62 300.502C405.15 297.205 406.212 290.614 407.354 284.606L413.427 255.529C413.427 255.529 397.118 280.376 389.605 297.683C384.04 310.653 377.585 323.872 376.517 335.054L389.332 319.299L403.038 302.46L404.62 300.502Z" fill="#465393"/>
<path d="M319.083 249.538C312.83 237.78 315.836 235.784 313.175 229.093C310.553 222.565 315.208 206.382 310.753 208.588C306.297 210.795 304.919 216.659 304.919 216.659C301.871 211.103 299.065 200.88 291.772 199.71C284.477 198.54 283.831 200.906 279.697 204.404C268.697 213.838 282.723 228.016 285.064 233.415C286.571 236.799 297.637 247.116 298.864 249.372L304.433 257.7L319.083 249.538Z" fill="#BC775C"/>
<path d="M297.595 217.389L288.707 200.471" stroke="#93523E" stroke-width="1.07832" stroke-linecap="round"/>
<path d="M291.772 220.127L282.084 204.373" stroke="#93523E" stroke-width="1.07832" stroke-linecap="round"/>
<path d="M284.852 223.156L279.315 213.615" stroke="#93523E" stroke-width="1.07832" stroke-linecap="round"/>
<path d="M299.791 232.28C299.838 226.423 303.248 219.335 303.248 219.335" stroke="#93523E" stroke-width="1.07832" stroke-linecap="round"/>
<path d="M371.914 315.757L318.396 242.288C318.054 241.856 317.571 241.57 317.037 241.485C316.503 241.398 315.958 241.52 315.505 241.824L301.492 251.378C300.825 251.843 300.351 252.547 300.16 253.352C299.97 254.157 300.076 255.008 300.459 255.737L343.497 337.556L371.914 315.757Z" fill="#5661AE"/>
<path d="M358.91 346.789C368.809 346.789 376.833 338.517 376.833 328.314C376.833 318.11 368.809 309.84 358.91 309.84C349.012 309.84 340.989 318.11 340.989 328.314C340.989 338.517 349.012 346.789 358.91 346.789Z" fill="#5661AE"/>
<path d="M433.795 233.284C433.795 233.284 407.664 241.852 402.508 244.075C397.353 246.298 397.009 255.191 396.666 261.489C396.425 265.903 401.257 338.373 401.575 380.344C401.643 389.31 400.021 394.999 398.98 399.983C397.937 404.967 398.98 407.679 398.98 407.679L510.943 408.712C510.943 408.712 507.587 262.883 506.899 257.696C506.211 252.509 511.613 248.042 505.758 245.431L463.005 233.284H433.795Z" fill="white"/>
<path d="M419.744 237.961C419.744 237.961 424.01 258.077 426.805 274.176C429.601 290.275 430.451 423.551 430.451 423.551C430.451 423.551 397.734 416.994 393.302 409.246C388.871 401.497 397.407 366.685 398.072 335.054C398.736 303.423 392.277 254.335 399.058 245.82C399.058 245.82 400.798 244.043 419.744 237.961Z" fill="#5661AE"/>
<path d="M474.731 236.668C474.731 236.668 459.207 270.009 460.157 280.171C461.106 290.332 461.16 376.992 460.157 395.085C459.533 406.091 457.907 417.013 455.298 427.705C455.298 427.705 497.646 430.796 514.011 425.516C514.011 425.516 521.779 375.102 516.68 357.091C511.581 339.081 507.686 245.479 507.686 245.479L474.731 236.668Z" fill="#5661AE"/>
<path d="M486.185 281.472C486.185 281.472 487.775 341.896 487.445 362.037C487.239 374.587 473.319 379.903 473.277 387.169C473.253 391.468 484.269 386.435 487.239 390.88C490.208 395.324 485.132 409.246 485.132 409.246L510.942 408.712L521.28 356.999L499.499 278.362L486.185 281.472Z" fill="#465393"/>
<path d="M434.332 219.816L431.908 247.976C431.908 247.976 431.261 252.35 438.631 253.734C444.483 254.832 456.643 247.744 459.387 245.409C465.488 240.219 466.053 237.079 465.408 234.674C464.484 231.227 461.465 206.944 461.465 206.944L434.332 219.816Z" fill="#BC775C"/>
<path d="M432.74 242.861L434.233 225.505L447.24 218.882L432.74 242.861Z" fill="#93523E" stroke="#93523E"/>
<path d="M419.873 166.519C419.873 166.519 414.89 189.526 414.226 205.194C413.557 221.003 419.037 224.013 425.831 225.193C431.19 226.124 439.525 226.192 444.767 223.494C454.325 218.574 470.016 206.633 472.07 204.315C475.25 200.728 475.031 184.73 462.887 180.774C454.054 177.895 431.532 153.463 419.873 166.519Z" fill="#BC775C"/>
<path d="M419.921 168.972C427.167 171.9 440.805 169.976 448.296 172.483C455.776 174.996 448.969 177.649 449.296 185.099C449.505 189.924 449.861 199.145 452.734 199.023C455.607 198.901 457.299 188.429 463.356 188.828C469.413 189.235 472.27 191.902 472.137 195.896C472.006 199.881 467.653 203.355 464.219 205.199C459.92 207.494 458.146 206.532 458.146 206.532C458.146 206.532 462.984 224.893 463.715 224.166C463.715 224.166 468.933 221.131 469.874 215.815C469.874 215.815 476.799 214.269 475.265 207.129C475.265 207.129 479.579 205.703 477.532 201.569C477.532 201.569 488.678 193.843 482.869 184.389C482.869 184.389 488.158 178.953 481.841 176.655C481.841 176.655 490.206 164.053 478.306 161.365C478.306 161.365 479.103 155.433 473.656 155.66C473.656 155.66 471.274 145.457 459.386 149.481C459.33 147.438 458.675 145.46 457.509 143.807C456.342 142.155 454.719 140.903 452.85 140.219C446.117 137.424 441.735 141.27 441.735 141.27C441.735 141.27 434.669 135.329 430.948 144.04C430.948 144.04 425.603 141.224 421.597 144.216C417.584 147.199 419.534 153.452 419.534 153.452C419.534 153.452 414.949 152.344 413.275 156.259C410.912 161.768 414.231 163.776 414.231 163.776C414.231 163.776 406.765 172.875 417.264 181.493L419.921 168.972Z" fill="#493212"/>
<path d="M438.157 191.685C438.551 189.824 437.912 188.1 436.729 187.834C435.547 187.567 434.268 188.86 433.874 190.721C433.48 192.581 434.119 194.305 435.302 194.572C436.484 194.838 437.762 193.546 438.157 191.685Z" fill="#080B09"/>
<path d="M421.886 187.907C422.28 186.047 421.641 184.323 420.458 184.057C419.275 183.79 417.998 185.082 417.603 186.944C417.209 188.804 417.848 190.528 419.03 190.794C420.213 191.061 421.491 189.769 421.886 187.907Z" fill="#080B09"/>
<path d="M425.102 192.848C425.102 192.848 427.122 196.86 424.203 196.921C421.413 196.881 419.788 198.568 422.602 201.013" stroke="#93523E" stroke-width="1.07832" stroke-linecap="round"/>
<path d="M423.034 204.723L423.046 204.724L423.059 204.725C424.789 204.854 428.245 205.11 430.542 205.32H430.546C430.613 205.326 430.677 205.35 430.732 205.39C430.786 205.431 430.829 205.486 430.856 205.55C430.882 205.614 430.891 205.684 430.882 205.752C430.872 205.818 430.846 205.881 430.806 205.933C430.301 206.507 429.636 207.189 428.897 207.777C428.15 208.372 427.352 208.85 426.585 209.04C425.835 209.226 425.127 209.135 424.493 208.612C423.84 208.072 423.216 207.031 422.75 205.2L422.742 205.169L422.729 205.139C422.708 205.091 422.701 205.037 422.706 204.984C422.712 204.931 422.732 204.881 422.763 204.839C422.793 204.796 422.835 204.763 422.882 204.743C422.93 204.722 422.982 204.716 423.034 204.723Z" fill="#93523E" stroke="#93523E"/>
<path d="M443.826 185.554L443.665 185.891C443.47 186.404 443.086 186.816 442.599 187.039C442.111 187.261 441.556 187.275 441.058 187.078L432.579 183.46C432.162 183.303 431.817 182.989 431.614 182.582C431.41 182.175 431.362 181.703 431.479 181.261C431.539 180.987 431.654 180.729 431.817 180.504C431.981 180.279 432.188 180.093 432.427 179.957C432.665 179.821 432.929 179.738 433.201 179.716C433.472 179.692 433.745 179.728 434.003 179.823L442.644 183.104C442.88 183.18 443.099 183.306 443.287 183.472C443.475 183.638 443.629 183.842 443.74 184.07C443.85 184.299 443.915 184.548 443.929 184.803C443.944 185.058 443.909 185.313 443.826 185.554Z" fill="#080B09"/>
<path d="M415.217 177.417L424.404 176.778C424.677 176.763 424.948 176.807 425.203 176.908C425.457 177.01 425.688 177.165 425.88 177.364C426.072 177.564 426.22 177.804 426.315 178.067C426.41 178.33 426.45 178.611 426.432 178.892C426.424 179.349 426.25 179.788 425.943 180.119C425.636 180.451 425.219 180.651 424.776 180.682L415.652 181.69C415.12 181.734 414.592 181.561 414.185 181.205C413.777 180.85 413.522 180.343 413.476 179.795L413.412 179.425C413.399 179.17 413.435 178.914 413.519 178.674C413.602 178.434 413.733 178.213 413.901 178.026C414.07 177.838 414.273 177.688 414.499 177.583C414.725 177.479 414.969 177.422 415.217 177.417Z" fill="#080B09"/>
<path d="M508.526 259.969C496.994 249.126 493.589 255.78 490.256 256.637C490.256 256.637 479.146 260.709 481.583 270.544C484.16 280.951 511.848 348.586 511.848 348.586L546.787 340.06L543.615 330.628L537.086 311.2L530.114 290.427L529.394 287.936L520.926 260.492C520.926 260.492 514.536 265.784 508.526 259.969Z" fill="#5661AE"/>
<path d="M514.207 281.013C522.693 273.524 523.683 260.362 516.419 251.615C509.154 242.867 496.386 241.847 487.9 249.335C479.414 256.824 478.424 269.986 485.689 278.733C492.953 287.481 505.721 288.502 514.207 281.013Z" fill="#5661AE"/>
<path d="M511.581 339.081L480.682 425.26C480.515 425.79 480.544 426.364 480.763 426.873C480.982 427.382 481.376 427.788 481.87 428.015L497.253 434.979C497.993 435.305 498.824 435.334 499.584 435.063C500.344 434.792 500.979 434.239 501.366 433.512L544.752 351.889L511.581 339.081Z" fill="#5661AE"/>
<path d="M528.865 362.018C538.764 362.018 546.787 353.747 546.787 343.543C546.787 333.34 538.764 325.069 528.865 325.069C518.967 325.069 510.943 333.34 510.943 343.543C510.943 353.747 518.967 362.018 528.865 362.018Z" fill="#5661AE"/>
</svg>
