<?xml version="1.0" standalone="no"?>
<!DOCTYPE svg PUBLIC "-//W3C//DTD SVG 20010904//EN"
 "http://www.w3.org/TR/2001/REC-SVG-20010904/DTD/svg10.dtd">
<svg version="1.0" xmlns="http://www.w3.org/2000/svg"
 width="1080.000000pt" height="1080.000000pt" viewBox="0 0 1080.000000 1080.000000"
 preserveAspectRatio="xMidYMid meet">
<metadata>
Created by potrace 1.14, written by Peter Selinger 2001-2017
</metadata>
<g transform="translate(0.000000,1080.000000) scale(0.100000,-0.100000)"
fill="#000000" stroke="none">
<path d="M5188 10355 c-1 -2 -48 -6 -103 -9 -105 -6 -196 -13 -255 -20 -70 -9
-297 -43 -330 -51 -14 -3 -41 -8 -60 -11 -19 -3 -55 -10 -80 -16 -25 -5 -52
-11 -60 -13 -59 -13 -254 -63 -257 -65 -3 -3 -7 -4 -48 -14 -16 -4 -46 -14
-65 -21 -19 -7 -38 -13 -42 -14 -11 -2 -24 -7 -108 -36 -41 -14 -81 -27 -87
-27 -7 -1 -13 -5 -13 -10 0 -5 -5 -6 -10 -3 -6 4 -16 2 -23 -3 -7 -6 -52 -26
-102 -45 -137 -53 -316 -135 -326 -150 -3 -5 -10 -9 -15 -9 -5 0 -20 -5 -34
-11 -14 -6 -28 -10 -32 -9 -5 1 -8 -2 -8 -6 0 -5 -16 -14 -35 -22 -19 -8 -35
-18 -35 -24 0 -5 -3 -6 -6 -3 -4 4 -19 -2 -34 -13 -16 -11 -32 -20 -37 -20 -5
0 -28 -14 -51 -31 -23 -17 -42 -28 -42 -25 0 8 -84 -46 -88 -56 -2 -5 -8 -8
-14 -8 -6 0 -30 -13 -55 -30 -24 -16 -48 -30 -53 -30 -4 0 -10 -4 -12 -8 -1
-5 -30 -26 -63 -47 -33 -22 -62 -42 -65 -45 -3 -4 -27 -22 -55 -40 -27 -19
-55 -39 -61 -45 -6 -5 -22 -17 -34 -25 -12 -8 -28 -19 -34 -25 -14 -12 -90
-74 -168 -137 -31 -25 -54 -49 -51 -52 4 -3 1 -6 -5 -6 -21 0 -301 -271 -432
-420 -36 -40 -73 -81 -82 -91 -10 -11 -18 -21 -18 -24 0 -3 -10 -16 -22 -29
-28 -28 -39 -42 -103 -126 -27 -36 -53 -67 -57 -68 -5 -2 -6 -8 -2 -13 3 -5 1
-9 -4 -9 -11 0 -152 -204 -152 -220 0 -6 -5 -8 -10 -5 -6 3 -10 1 -10 -6 0 -7
-11 -27 -25 -44 -13 -18 -21 -35 -18 -39 4 -3 2 -6 -4 -6 -6 0 -16 -13 -23
-30 -7 -16 -16 -30 -21 -30 -5 0 -8 -3 -7 -7 1 -5 -5 -19 -14 -33 -34 -54 -88
-152 -88 -160 0 -5 -6 -15 -12 -22 -16 -16 -83 -150 -80 -160 1 -3 -5 -12 -13
-18 -8 -7 -15 -20 -15 -30 0 -10 -7 -23 -15 -30 -8 -7 -15 -21 -15 -31 0 -10
-5 -21 -10 -24 -6 -4 -8 -11 -5 -16 4 -5 1 -9 -4 -9 -6 0 -10 -3 -9 -7 1 -5
-6 -24 -14 -43 -30 -65 -46 -105 -50 -120 -2 -8 -5 -17 -8 -20 -8 -7 -99 -258
-106 -289 -3 -14 -8 -29 -11 -34 -3 -5 -11 -30 -18 -55 -8 -26 -25 -87 -39
-137 -14 -49 -26 -91 -26 -92 0 -2 0 -4 -1 -5 -3 -11 -11 -47 -14 -63 -2 -11
-4 -22 -6 -25 -1 -3 -3 -9 -4 -15 -1 -5 -7 -35 -13 -65 -7 -30 -14 -65 -17
-78 -2 -13 -6 -31 -9 -40 -3 -9 -8 -37 -12 -62 -8 -61 -12 -81 -18 -110 -3
-14 -7 -47 -10 -75 -3 -27 -5 -50 -6 -50 -1 0 -3 -13 -5 -30 -7 -68 -16 -152
-22 -190 -7 -49 -13 -677 -6 -688 3 -4 6 -38 9 -75 3 -61 8 -119 19 -227 2
-22 6 -52 9 -67 4 -14 8 -46 10 -70 2 -24 8 -70 14 -103 6 -33 14 -73 17 -90
5 -34 12 -68 20 -105 3 -14 7 -34 9 -45 3 -11 9 -40 15 -65 7 -25 14 -56 17
-70 2 -14 9 -39 15 -57 5 -17 12 -43 15 -58 3 -15 11 -46 19 -68 8 -23 15 -50
15 -59 0 -10 5 -18 11 -18 5 0 8 -4 5 -8 -7 -12 107 -346 134 -394 6 -10 10
-25 10 -33 0 -8 5 -15 12 -15 6 0 9 -3 5 -6 -5 -5 8 -38 78 -189 15 -33 27
-60 26 -60 -1 0 19 -38 44 -84 25 -47 45 -90 45 -97 0 -7 4 -14 9 -16 7 -3 65
-103 95 -165 6 -13 14 -23 19 -23 4 0 7 -4 7 -10 0 -8 68 -121 88 -145 4 -5
17 -25 27 -43 11 -17 23 -32 28 -32 4 0 5 -4 2 -10 -3 -5 -1 -10 4 -10 6 0 11
-6 11 -14 0 -8 3 -16 8 -18 4 -1 23 -25 42 -53 43 -63 43 -63 80 -106 16 -20
30 -39 30 -43 0 -6 32 -45 62 -78 10 -10 16 -18 12 -18 -3 0 6 -11 20 -24 15
-13 26 -26 26 -29 0 -4 12 -19 27 -35 16 -16 48 -53 73 -83 77 -92 471 -479
487 -479 2 0 32 -24 66 -53 34 -28 67 -56 74 -62 7 -5 18 -15 26 -21 7 -6 51
-39 98 -73 46 -34 92 -68 101 -76 9 -7 27 -19 40 -26 13 -6 25 -15 28 -18 8
-9 62 -45 93 -60 15 -8 27 -18 27 -23 0 -4 5 -8 11 -8 6 0 30 -14 54 -30 24
-17 48 -30 54 -30 6 0 11 -3 11 -8 0 -4 15 -13 32 -21 18 -8 35 -17 38 -21 3
-4 45 -28 95 -54 49 -26 94 -51 100 -55 5 -4 39 -20 75 -36 36 -17 68 -34 71
-38 3 -5 8 -8 10 -6 2 1 28 -9 57 -24 28 -14 52 -24 52 -22 0 2 21 -7 46 -20
26 -14 53 -25 61 -25 8 0 24 -5 36 -12 12 -7 28 -13 36 -14 8 -2 18 -9 22 -16
5 -7 9 -10 9 -6 0 4 24 -2 53 -13 28 -12 59 -23 67 -24 8 -2 16 -4 18 -5 1 -2
5 -3 10 -5 4 -1 16 -5 27 -9 11 -4 31 -12 45 -16 14 -4 34 -12 45 -16 11 -4
23 -8 28 -9 4 -2 9 -4 12 -5 3 -1 8 -3 13 -4 4 -2 27 -9 52 -16 52 -16 45 -14
90 -24 19 -5 39 -11 45 -14 5 -3 16 -7 25 -8 19 -3 54 -12 58 -14 1 -2 10 -3
20 -4 9 -1 28 -6 40 -10 24 -8 37 -11 100 -21 19 -2 38 -7 43 -11 5 -3 30 -7
56 -10 25 -2 50 -7 56 -11 6 -4 25 -8 42 -10 16 -1 44 -5 60 -8 17 -3 49 -8
73 -11 49 -7 77 -12 77 -14 0 -1 32 -3 70 -6 107 -7 150 -11 150 -14 0 -4 169
-11 341 -14 99 -1 185 -6 191 -9 7 -4 14 -4 17 1 3 5 38 9 78 10 40 2 106 4
145 5 40 1 73 4 73 7 0 3 12 6 28 6 41 1 173 13 207 20 29 5 49 8 125 18 33 4
49 7 124 21 16 3 59 13 95 21 36 8 81 16 99 17 17 1 32 5 32 8 0 6 66 20 80
18 3 -1 22 6 43 14 20 9 37 14 37 12 0 -2 18 2 40 10 22 8 41 14 43 14 1 0 9
2 17 4 8 3 51 15 95 28 44 12 85 26 91 31 6 4 21 10 35 12 13 3 26 5 29 6 3 2
8 2 13 1 4 0 7 4 7 10 0 5 4 8 8 5 4 -2 27 4 51 15 24 10 47 19 52 19 5 0 32
11 61 24 72 32 90 38 113 43 10 2 22 7 25 12 3 5 16 12 30 16 14 4 78 34 143
66 65 33 124 59 132 59 7 0 15 4 17 9 2 5 48 34 103 64 156 85 179 98 196 113
8 8 20 14 26 14 5 0 18 9 28 20 10 11 21 17 25 15 5 -3 10 -2 12 2 1 5 41 33
88 63 47 30 87 57 90 60 3 3 21 17 40 30 19 13 40 29 46 35 6 5 22 17 34 25
12 8 28 20 34 26 6 5 29 22 51 37 22 15 35 27 30 27 -6 1 0 6 11 13 21 11 76
56 151 122 191 167 390 371 541 554 21 25 44 52 52 61 8 8 49 60 90 115 41 55
77 102 80 105 3 3 10 12 15 21 6 9 55 84 110 167 104 157 138 212 139 225 1 4
8 12 16 17 8 5 12 10 8 10 -4 0 7 24 24 53 42 70 148 282 148 295 0 6 5 12 11
14 5 2 11 10 13 18 1 8 12 37 24 64 12 27 22 52 22 57 0 5 4 9 10 9 5 0 7 7 4
15 -4 8 -1 15 5 15 6 0 11 9 11 20 0 11 5 20 12 20 6 0 9 3 5 6 -7 7 33 116
46 125 5 3 8 9 8 13 -1 3 -1 7 0 9 0 1 2 13 5 26 2 14 9 30 15 38 6 7 8 13 4
13 -4 0 -2 7 5 15 7 8 9 15 5 15 -4 0 -2 6 4 13 6 8 8 17 4 20 -3 4 0 7 7 7 7
0 11 3 7 6 -3 3 1 25 10 47 8 23 16 47 17 52 1 6 10 37 20 70 10 33 19 65 20
70 2 6 9 30 16 55 13 44 15 54 24 103 2 12 5 23 6 25 3 2 3 2 15 57 4 22 9 45
11 50 1 6 7 35 13 65 6 30 14 66 17 80 2 14 7 39 9 55 2 17 6 45 9 63 15 84
18 100 21 137 2 22 7 63 10 90 31 239 38 839 11 884 -4 6 -2 11 4 11 6 0 8 5
3 13 -4 6 -8 35 -9 62 -2 28 -3 50 -4 50 -1 0 -3 20 -5 45 -5 66 -13 132 -19
165 -3 17 -8 50 -12 75 -4 37 -41 241 -48 275 -4 15 -17 78 -21 100 -2 11 -4
20 -6 20 -1 0 -3 9 -5 20 -6 36 -9 50 -17 63 -5 6 -6 12 -3 12 3 0 1 12 -5 28
-6 15 -13 41 -16 57 -3 17 -9 38 -14 48 -5 9 -8 17 -5 17 3 0 -2 16 -10 35 -8
19 -11 35 -8 35 4 0 1 7 -6 15 -7 8 -9 15 -5 15 4 0 2 6 -4 14 -6 7 -12 25
-13 40 -1 14 -5 26 -9 26 -6 0 -21 49 -23 75 -1 6 -4 12 -8 15 -4 3 -9 17 -11
31 -3 15 -10 35 -15 45 -6 11 -22 51 -37 89 -36 90 -48 119 -74 177 -11 26
-21 52 -21 58 0 5 -4 10 -10 10 -5 0 -10 7 -10 15 0 17 -172 357 -190 375 -3
3 -12 19 -20 35 -8 17 -19 35 -23 40 -4 6 -40 62 -80 125 -40 64 -93 146 -119
182 -27 37 -48 72 -48 78 0 6 -4 8 -10 5 -5 -3 -10 -2 -10 3 0 12 -118 166
-131 170 -5 2 -9 8 -9 14 0 5 -6 15 -12 23 -7 7 -27 30 -45 51 -129 159 -373
408 -538 549 -32 28 -68 59 -81 70 -54 49 -75 65 -83 65 -5 0 -12 7 -15 16 -4
9 -9 14 -12 11 -3 -2 -15 5 -27 17 -13 11 -36 31 -52 43 -17 12 -51 37 -76 56
-26 19 -57 41 -70 47 -13 7 -26 16 -29 20 -15 20 -255 172 -338 214 -20 10
-44 24 -52 31 -15 13 -394 205 -404 205 -3 0 -35 14 -71 30 -36 17 -70 30 -75
30 -6 0 -18 4 -28 10 -14 8 -58 27 -82 35 -3 1 -18 7 -33 13 -16 7 -30 12 -32
12 -2 0 -16 5 -32 12 -15 6 -32 12 -38 13 -5 2 -32 10 -60 20 -27 9 -54 18
-60 19 -5 2 -17 6 -25 9 -51 19 -154 46 -160 42 -5 -3 -10 -1 -12 4 -1 5 -16
12 -33 15 -16 2 -67 14 -113 25 -45 12 -96 23 -114 26 -17 3 -34 8 -38 10 -5
3 -31 8 -120 20 -8 1 -22 5 -30 8 -8 3 -37 8 -65 11 -27 3 -61 8 -75 10 -22 4
-44 7 -150 21 -27 3 -140 14 -230 21 -69 6 -547 14 -552 9z m212 -218 c0 7 6
11 13 8 6 -2 92 -6 190 -9 102 -3 186 -10 198 -17 17 -9 20 -8 14 2 -5 7 -4
10 3 5 6 -3 42 -9 79 -12 37 -3 82 -8 98 -10 17 -2 47 -5 67 -7 21 -1 38 -5
38 -8 0 -3 10 -5 23 -4 12 1 26 0 32 -3 5 -4 26 -7 45 -9 19 -1 76 -12 125
-23 50 -11 101 -22 115 -24 14 -3 25 -5 25 -6 0 -2 3 -2 60 -15 36 -7 58 -13
65 -15 3 -1 8 -2 12 -1 3 0 33 -8 65 -18 48 -16 118 -37 156 -47 4 -1 9 -3 12
-4 3 -1 8 -3 13 -4 61 -16 92 -29 92 -37 0 -6 5 -7 10 -4 6 3 16 3 23 -2 6 -4
17 -8 22 -8 10 -1 25 -6 70 -25 19 -8 54 -21 65 -25 25 -8 88 -35 150 -63 25
-11 63 -28 85 -37 93 -41 404 -201 415 -214 8 -10 63 -42 83 -48 9 -3 17 -9
17 -14 0 -5 5 -9 11 -9 5 0 37 -18 69 -40 32 -22 64 -40 70 -40 6 0 9 -4 6 -8
-2 -4 8 -13 24 -20 15 -7 40 -24 54 -37 14 -13 26 -22 26 -20 0 4 146 -102
190 -138 330 -266 620 -563 850 -872 41 -55 78 -101 83 -103 4 -2 7 -10 7 -18
0 -8 5 -14 10 -14 6 0 10 -7 10 -15 0 -8 5 -15 10 -15 6 0 10 -7 10 -15 0 -8
4 -15 8 -15 4 0 17 -14 27 -32 11 -17 29 -46 40 -63 11 -18 34 -56 52 -86 17
-30 35 -58 40 -64 10 -13 59 -99 81 -145 9 -19 20 -37 23 -40 7 -6 149 -296
149 -304 0 -3 11 -29 24 -58 21 -48 37 -85 41 -98 1 -3 7 -18 13 -33 7 -16 12
-31 12 -34 0 -3 6 -19 14 -36 16 -37 45 -114 47 -125 1 -4 3 -11 5 -17 34
-102 66 -204 69 -220 2 -11 4 -20 5 -20 1 0 3 -7 5 -15 1 -8 8 -35 15 -60 16
-60 17 -65 34 -141 22 -97 27 -122 30 -139 1 -8 6 -28 10 -45 3 -16 9 -46 12
-65 3 -19 7 -46 9 -60 5 -29 10 -66 19 -132 13 -102 18 -145 21 -198 2 -30 5
-55 6 -55 2 0 7 -95 9 -192 1 -56 6 -93 12 -93 6 0 6 -6 -1 -14 -9 -11 -10
-20 -1 -35 6 -12 7 -21 2 -21 -4 0 -5 -25 -2 -55 3 -31 4 -57 2 -59 -2 -2 -5
-53 -7 -113 -5 -122 -11 -213 -21 -293 -3 -30 -8 -71 -9 -90 -2 -19 -4 -35 -5
-35 -1 0 -3 -13 -5 -30 -7 -54 -14 -100 -15 -100 -1 0 -3 -16 -5 -35 -2 -19
-4 -35 -5 -35 -1 0 -3 -11 -6 -25 -7 -40 -43 -210 -58 -275 -8 -33 -12 -63
-10 -67 3 -5 1 -8 -4 -8 -9 0 -39 -117 -34 -132 1 -5 -2 -8 -7 -8 -7 0 -22
-53 -22 -75 0 -3 -8 -25 -19 -49 -10 -24 -16 -47 -13 -50 4 -3 0 -6 -7 -6 -7
0 -11 -3 -7 -6 5 -6 0 -24 -29 -99 -4 -11 -8 -22 -9 -25 -6 -16 -19 -49 -31
-77 -8 -17 -14 -34 -14 -38 0 -5 -14 -40 -50 -120 -5 -11 -39 -83 -76 -160
-37 -77 -66 -143 -66 -147 1 -5 -3 -8 -9 -8 -5 0 -7 -4 -4 -10 3 -5 1 -10 -4
-10 -6 0 -11 -4 -11 -10 0 -13 -121 -224 -134 -232 -6 -4 -8 -8 -3 -8 4 0 -9
-22 -28 -50 -19 -27 -35 -54 -35 -59 0 -5 -3 -11 -7 -13 -5 -1 -30 -37 -58
-78 -44 -67 -152 -217 -165 -230 -3 -3 -34 -41 -69 -85 -77 -95 -80 -98 -131
-152 -23 -24 -39 -43 -36 -43 2 0 -67 -72 -154 -160 -87 -88 -164 -160 -170
-160 -6 0 -8 -4 -5 -10 3 -5 1 -10 -4 -10 -6 0 -29 -17 -50 -37 -43 -42 -54
-51 -121 -103 -25 -19 -51 -43 -58 -52 -7 -10 -18 -16 -23 -13 -5 4 -9 2 -9
-3 0 -5 -27 -29 -60 -53 -33 -24 -60 -47 -60 -52 0 -4 -4 -6 -8 -3 -5 3 -20
-6 -35 -20 -14 -13 -31 -24 -37 -24 -5 0 -10 -3 -10 -7 0 -5 -23 -21 -51 -38
-28 -16 -56 -35 -62 -41 -7 -5 -28 -19 -47 -30 -19 -10 -41 -25 -48 -31 -7 -7
-17 -13 -21 -13 -4 0 -18 -9 -31 -20 -13 -11 -31 -20 -42 -20 -10 0 -18 -4
-18 -8 0 -5 -18 -18 -41 -30 -80 -43 -104 -57 -110 -65 -3 -5 -9 -8 -13 -8 -3
0 -60 -26 -127 -59 -67 -33 -126 -60 -131 -60 -6 0 -24 -10 -41 -22 -18 -13
-34 -22 -37 -21 -11 5 -50 -10 -50 -18 0 -5 -3 -8 -7 -7 -5 2 -28 -6 -53 -16
-25 -11 -49 -20 -55 -22 -5 -1 -46 -16 -90 -34 -44 -17 -87 -33 -95 -35 -8 -2
-16 -4 -17 -5 -2 -2 -6 -3 -10 -4 -14 -3 -187 -57 -213 -66 -21 -8 -117 -33
-172 -46 -10 -2 -28 -6 -40 -10 -13 -3 -33 -7 -45 -10 -13 -2 -33 -6 -45 -9
-90 -19 -128 -26 -163 -31 -22 -3 -56 -10 -75 -14 -19 -5 -62 -12 -95 -15 -33
-3 -71 -7 -83 -10 -12 -2 -55 -7 -95 -11 -39 -3 -85 -8 -102 -10 -16 -2 -95
-6 -175 -9 -80 -2 -147 -5 -150 -6 -21 -4 -417 10 -470 17 -25 3 -69 7 -97 7
-29 1 -53 6 -53 10 0 5 -4 6 -8 3 -7 -4 -82 6 -232 30 -19 3 -49 7 -67 8 -17
2 -35 6 -41 10 -5 3 -28 8 -52 11 -23 3 -45 7 -49 10 -4 2 -18 6 -32 9 -13 3
-35 7 -49 11 -40 9 -68 15 -97 21 -15 3 -30 7 -35 10 -7 5 -19 8 -73 19 -11 3
-60 18 -110 35 -49 17 -90 30 -90 30 0 -2 -35 10 -90 30 -56 20 -82 29 -93 31
-4 1 -24 10 -44 20 -21 11 -38 17 -38 15 0 -3 -39 13 -86 34 -47 22 -92 40
-100 40 -8 0 -14 5 -14 10 0 6 -3 9 -7 8 -5 -1 -47 17 -95 40 -48 23 -91 42
-94 41 -4 0 -10 3 -13 8 -3 5 -17 14 -31 20 -51 25 -149 80 -164 92 -9 8 -16
10 -16 5 0 -5 -4 -4 -8 1 -4 6 -41 31 -82 55 -41 25 -81 50 -88 57 -6 6 -21
15 -32 18 -11 3 -20 11 -20 16 0 5 -5 9 -11 9 -11 0 -132 82 -157 107 -7 7
-17 13 -21 13 -4 0 -16 8 -27 18 -10 9 -46 37 -79 62 -33 25 -69 54 -81 65
-12 11 -32 28 -45 39 -113 89 -221 189 -363 335 -130 134 -123 126 -191 207
-32 38 -61 71 -65 74 -3 3 -19 23 -35 45 -17 22 -38 47 -47 56 -10 9 -18 21
-18 28 0 6 -4 11 -10 11 -5 0 -10 7 -10 16 0 8 -4 13 -9 9 -5 -3 -12 4 -16 15
-3 11 -11 20 -16 20 -6 0 -7 4 -4 10 3 5 1 10 -4 10 -6 0 -11 7 -11 15 0 8 -4
15 -9 15 -8 0 -193 276 -221 330 -7 14 -16 27 -19 30 -3 3 -13 19 -21 35 -8
17 -24 44 -35 61 -25 36 -192 373 -197 394 -2 8 -6 17 -9 20 -3 3 -16 32 -29
65 -13 33 -31 79 -42 102 -10 23 -18 46 -18 51 0 4 -9 27 -20 50 -11 22 -20
49 -20 60 0 10 -4 22 -10 28 -5 5 -11 18 -13 29 -2 11 -7 27 -10 35 -17 46
-48 151 -50 169 -1 12 -5 21 -10 21 -5 0 -7 7 -3 15 3 8 0 15 -6 15 -6 0 -9 3
-6 6 4 3 2 20 -3 37 -12 38 -18 63 -25 97 -3 14 -12 52 -21 85 -8 33 -16 69
-18 80 -1 11 -5 34 -8 50 -11 50 -18 93 -32 185 -3 19 -7 51 -11 70 -3 19 -7
53 -9 75 -2 22 -7 63 -10 90 -8 70 -16 175 -20 277 -2 48 -6 92 -9 97 -4 5 -2
12 4 16 7 4 7 12 0 25 -6 12 -7 21 0 25 5 3 7 12 3 20 -9 25 -10 159 -1 177 4
9 4 19 -1 22 -10 7 -9 25 2 43 4 6 3 14 -3 18 -6 4 -8 11 -5 16 4 5 8 39 10
76 5 68 12 151 19 208 2 17 7 57 10 90 6 57 12 94 16 105 1 3 2 9 1 14 -1 5 1
16 5 25 3 9 7 30 9 46 2 32 13 93 30 168 5 19 12 58 19 92 1 6 5 16 10 23 4 7
5 16 2 19 -3 3 1 21 9 39 8 19 14 37 14 39 -2 22 15 85 22 85 6 0 8 4 5 9 -5
8 4 44 21 91 4 8 5 21 4 28 -1 6 2 12 6 12 5 0 10 12 11 26 1 14 5 31 9 37 4
7 8 17 9 22 1 6 16 48 34 95 17 47 33 90 34 95 2 6 8 24 15 40 7 17 23 57 36
90 13 33 33 78 43 100 27 56 66 139 67 145 4 14 19 46 24 50 3 3 22 37 41 75
18 39 39 73 45 77 5 4 6 8 2 8 -5 0 1 13 12 29 12 16 21 31 21 34 0 7 73 131
81 137 3 3 14 22 23 42 10 20 28 48 39 61 12 13 23 30 25 37 2 8 11 19 20 27
9 7 13 13 9 13 -7 0 0 10 31 45 6 7 12 17 12 22 0 7 31 47 74 95 8 9 13 18 10
20 -2 3 10 17 26 33 17 16 30 32 30 37 0 8 33 49 72 90 10 10 15 18 12 18 -4
0 5 11 20 25 14 13 26 27 26 30 0 3 8 13 18 23 9 10 53 58 97 107 44 48 120
127 170 175 163 158 215 206 325 295 47 38 88 74 92 80 4 5 8 7 8 3 0 -5 8 0
18 10 10 9 29 24 42 32 12 8 28 20 34 25 27 25 117 85 127 85 5 0 7 4 4 10 -3
5 6 12 20 16 14 3 25 10 25 16 0 5 5 6 10 3 6 -3 10 -2 10 3 0 5 12 15 28 23
15 8 29 16 32 19 9 9 89 60 95 60 5 0 79 46 100 63 32 25 383 200 403 200 6 0
12 3 12 7 0 7 92 46 102 42 5 -1 8 2 8 8 0 5 9 10 19 10 11 0 23 5 26 10 4 6
12 9 18 8 7 -1 22 3 34 10 33 18 225 88 293 107 3 1 32 10 65 20 33 10 65 20
70 21 127 35 195 51 195 47 0 -2 6 -1 13 4 6 4 17 8 22 10 59 13 108 23 135
28 139 27 190 36 220 41 19 3 51 7 70 10 19 3 49 7 65 9 17 3 59 7 95 11 36 3
85 7 110 9 25 2 117 7 205 10 88 4 162 9 164 11 3 2 8 -1 13 -8 6 -10 8 -10 8
-1z"/>
<path d="M6546 9083 c-3 -3 -20 -7 -39 -8 -80 -8 -129 -15 -137 -20 -4 -2 -25
-8 -46 -11 -22 -3 -43 -7 -49 -8 -5 -1 -16 -5 -22 -9 -7 -5 -13 -6 -13 -2 0 3
-8 1 -18 -4 -11 -6 -32 -13 -48 -16 -36 -8 -43 -10 -74 -22 -14 -6 -28 -9 -32
-6 -5 2 -8 0 -8 -5 0 -5 -6 -9 -12 -9 -7 0 -31 -8 -53 -17 -22 -10 -49 -22
-60 -26 -61 -25 -168 -79 -223 -112 -47 -29 -69 -37 -85 -32 -27 10 -35 12
-72 19 -16 3 -48 11 -70 17 -22 5 -53 12 -70 14 -34 4 -81 12 -110 18 -75 15
-505 29 -505 16 0 -3 -17 -5 -38 -6 -56 -1 -181 -18 -289 -40 -16 -3 -37 -7
-48 -9 -11 -2 -45 -11 -75 -20 -57 -17 -118 -34 -135 -38 -5 -1 -14 -5 -20 -8
-8 -5 -104 -39 -125 -44 -34 -9 -272 -126 -339 -167 -34 -21 -65 -38 -67 -38
-6 0 -174 -119 -224 -159 -81 -65 -103 -85 -211 -192 -299 -298 -516 -670
-623 -1069 -41 -150 -50 -195 -62 -280 -3 -25 -8 -53 -10 -64 -2 -10 -6 -53
-9 -95 -13 -169 -30 -253 -70 -346 -8 -16 -52 -122 -100 -235 -48 -113 -92
-218 -100 -235 -7 -16 -32 -75 -55 -130 -23 -55 -50 -118 -60 -140 -10 -22
-36 -85 -59 -140 -23 -55 -46 -109 -51 -120 -4 -11 -17 -41 -29 -67 -12 -26
-21 -50 -21 -53 0 -2 -11 -28 -24 -58 -66 -144 -58 -274 26 -401 42 -64 159
-136 224 -139 30 -2 36 -6 44 -37 7 -29 92 -440 107 -520 2 -14 15 -77 28
-140 13 -63 27 -131 30 -150 3 -19 12 -64 20 -100 8 -36 17 -76 19 -90 15 -87
32 -144 61 -207 51 -111 86 -155 216 -275 10 -9 55 -35 101 -56 162 -77 316
-92 478 -47 30 8 63 17 73 20 11 2 62 18 115 36 54 17 102 32 107 33 6 1 26 7
45 13 355 114 321 110 343 31 10 -35 19 -70 22 -78 5 -22 185 -645 266 -925
38 -132 71 -247 73 -255 23 -89 30 -110 37 -110 10 0 158 58 174 68 5 4 15 7
20 8 6 1 32 11 57 23 26 11 49 21 51 21 3 0 22 8 43 17 22 9 41 17 44 18 3 1
19 7 35 14 17 7 35 14 40 15 6 1 15 4 20 8 6 3 80 34 165 68 85 34 171 69 190
77 19 8 44 18 55 22 11 5 34 14 50 22 17 7 32 13 35 14 19 6 48 18 62 26 10 5
25 9 33 9 8 0 15 5 15 10 0 6 3 9 8 8 4 -1 23 4 42 11 19 8 38 13 43 12 4 0 7
3 7 9 0 6 3 9 8 8 4 -2 27 6 52 16 25 11 47 20 50 20 5 1 119 47 165 67 11 4
49 20 85 34 36 14 74 30 85 35 29 13 391 159 450 181 28 11 58 24 69 30 10 6
26 12 35 14 9 3 86 33 171 68 l155 64 1 734 c1 404 4 766 8 804 15 181 44 348
93 538 19 71 21 73 92 82 24 3 65 10 90 16 25 6 57 13 71 15 14 3 32 7 40 10
8 3 25 8 37 10 12 2 35 9 50 16 16 6 32 10 36 9 4 0 17 4 28 10 11 6 28 12 37
14 9 2 31 9 47 16 17 6 35 13 40 14 54 12 394 204 437 247 10 10 21 18 24 18
7 0 36 22 110 86 405 347 672 848 731 1369 10 88 10 380 0 460 -34 280 -92
479 -212 720 -156 316 -377 577 -670 788 -33 24 -65 46 -70 48 -6 2 -32 18
-60 36 -27 17 -54 32 -59 31 -5 0 -12 5 -15 10 -6 10 -158 84 -198 96 -13 4
-23 11 -23 15 0 4 -8 7 -17 8 -10 1 -40 11 -66 22 -46 20 -69 27 -129 38 -16
3 -28 8 -28 12 0 4 -10 8 -22 8 -13 1 -30 3 -38 6 -8 2 -33 7 -55 12 -22 4
-44 10 -49 13 -7 4 -32 7 -116 14 -8 0 -19 4 -25 8 -11 8 -471 10 -479 3z
m409 -228 c39 -4 77 -8 85 -10 8 -1 35 -5 60 -9 64 -10 73 -12 90 -19 8 -4 26
-8 40 -10 14 -2 32 -7 41 -11 9 -4 27 -8 40 -10 26 -4 40 -9 107 -37 24 -10
46 -18 50 -17 4 1 27 -8 51 -20 25 -12 51 -22 58 -22 7 0 13 -4 13 -10 0 -5 6
-10 13 -10 20 0 214 -119 302 -185 381 -285 653 -732 725 -1193 6 -37 13 -78
16 -92 3 -14 7 -99 9 -190 7 -312 -50 -576 -185 -855 -47 -98 -166 -294 -190
-315 -3 -3 -21 -25 -40 -50 -53 -69 -177 -195 -255 -258 -38 -31 -72 -60 -75
-63 -12 -14 -136 -93 -142 -91 -5 1 -8 -2 -8 -7 0 -22 -357 -183 -457 -206
-10 -2 -43 -11 -73 -19 -57 -16 -107 -26 -150 -31 -14 -2 -41 -6 -60 -10 -19
-4 -62 -8 -95 -10 -33 -2 -62 -5 -65 -5 -14 -5 -120 -4 -120 0 0 3 -37 5 -83
6 -45 0 -109 4 -142 9 -58 7 -68 9 -117 20 -13 3 -39 8 -58 11 -19 3 -43 10
-52 15 -10 5 -18 7 -18 4 0 -3 -17 2 -37 10 -21 9 -38 16 -38 15 0 -1 -7 1
-15 4 -8 2 -33 10 -55 16 -22 7 -87 34 -144 61 -57 27 -107 49 -112 49 -5 0
-9 5 -9 10 0 6 -5 10 -11 10 -16 0 -201 125 -274 184 -90 74 -234 222 -293
301 -28 39 -56 75 -61 82 -6 6 -28 40 -49 75 -191 314 -282 626 -285 983 -2
242 21 398 92 613 44 134 161 384 192 412 3 3 16 23 29 44 68 112 254 317 370
409 36 28 67 54 70 57 6 6 123 83 185 121 22 14 68 38 103 54 34 16 62 32 62
35 0 4 6 7 13 7 6 1 54 17 106 37 52 19 127 43 165 53 39 10 73 20 76 23 3 3
12 5 20 5 8 -1 31 2 50 6 49 11 117 20 168 24 24 2 45 5 47 7 6 6 248 1 320
-7z m-1805 -226 c37 -3 226 -30 237 -34 6 -2 -43 -60 -110 -128 -67 -68 -132
-137 -144 -153 -12 -16 -32 -42 -46 -59 -27 -35 -131 -188 -132 -195 0 -3 -8
-16 -17 -30 -66 -99 -192 -414 -223 -560 -48 -220 -56 -294 -56 -485 -1 -514
156 -951 493 -1370 103 -128 319 -318 476 -420 97 -62 321 -177 333 -169 5 3
9 1 9 -4 0 -5 19 -15 43 -22 23 -8 47 -17 52 -20 13 -9 113 -39 150 -46 15 -3
37 -10 47 -15 11 -6 22 -8 25 -5 3 2 16 0 30 -5 14 -5 40 -12 57 -14 83 -13
114 -17 151 -20 22 -3 58 -7 80 -9 22 -3 70 -6 108 -7 37 -1 67 -5 67 -8 0 -3
-5 -26 -11 -51 -6 -25 -12 -54 -15 -65 -2 -11 -7 -33 -11 -50 -4 -16 -7 -32
-8 -35 -2 -12 -18 -106 -19 -115 -6 -47 -19 -143 -22 -158 -12 -65 -17 -330
-16 -857 0 -333 -1 -615 -4 -626 -3 -19 -19 -28 -64 -39 -3 0 -15 -6 -27 -13
-13 -7 -23 -9 -23 -5 0 4 -4 3 -8 -3 -5 -8 -114 -54 -142 -60 -6 -1 -71 -29
-117 -50 -17 -8 -34 -14 -38 -14 -4 0 -23 -7 -43 -16 -21 -9 -46 -20 -57 -25
-11 -5 -33 -14 -50 -20 -16 -7 -32 -13 -35 -15 -18 -7 -56 -17 -59 -15 -2 2
-7 -1 -10 -6 -7 -11 -189 -86 -208 -86 -7 0 -13 -4 -13 -9 0 -4 -3 -7 -7 -6
-5 1 -19 -3 -33 -9 -14 -6 -42 -18 -62 -26 -20 -8 -39 -13 -42 -9 -3 3 -6 1
-6 -5 0 -5 -19 -16 -42 -23 -24 -8 -47 -17 -53 -21 -5 -3 -21 -10 -33 -14 -13
-4 -45 -16 -70 -28 -26 -11 -52 -22 -59 -23 -7 -1 -26 -9 -44 -18 -17 -9 -35
-13 -40 -10 -5 3 -9 1 -9 -4 0 -6 -7 -13 -16 -16 -10 -4 -13 -2 -8 7 4 6 -1 5
-12 -5 -15 -13 -80 -45 -99 -48 -3 0 -19 -7 -37 -15 -18 -7 -36 -11 -40 -9 -5
3 -8 1 -8 -4 0 -6 -12 -13 -27 -18 -16 -4 -30 -8 -33 -9 -3 -1 -23 -9 -45 -19
-111 -49 -416 -168 -420 -165 -2 3 -6 16 -9 29 -3 14 -28 104 -56 200 -28 96
-69 238 -91 315 -22 77 -51 176 -64 220 -13 44 -58 199 -99 345 -83 289 -92
314 -105 305 -8 -4 -259 -84 -286 -90 -5 -1 -23 -7 -39 -14 -15 -6 -39 -12
-52 -13 -13 -1 -24 -5 -24 -8 0 -4 -19 -11 -42 -17 -24 -6 -95 -27 -158 -48
-63 -20 -122 -38 -130 -40 -8 -2 -16 -4 -17 -4 -2 -1 -5 -1 -8 -1 -3 0 -19 -7
-35 -15 -17 -9 -30 -13 -30 -11 0 3 -18 -1 -40 -9 -38 -13 -200 -15 -240 -3
-80 25 -131 55 -194 115 -69 66 -119 168 -132 266 -2 15 -5 31 -8 35 -2 4 -7
26 -10 48 -4 22 -8 49 -10 59 -3 11 -27 130 -54 265 -28 135 -67 326 -87 425
-41 202 -46 224 -50 245 -2 8 -7 36 -10 62 -9 59 -22 76 -60 82 -16 2 -30 5
-30 6 0 1 -18 3 -40 5 -91 8 -149 39 -171 90 -21 50 -17 84 15 161 51 123 202
478 216 509 23 50 282 667 299 710 28 74 55 199 61 285 6 90 15 182 21 215 2
11 8 45 14 75 6 30 12 67 15 81 21 112 107 351 181 500 76 153 210 354 315
469 75 83 150 158 204 205 32 28 69 60 83 73 14 12 28 22 32 22 3 0 15 8 26
18 10 9 39 30 64 47 25 16 47 33 50 36 3 3 26 18 52 32 25 14 63 36 85 49 21
13 63 36 93 50 30 14 75 36 100 48 25 12 52 23 61 25 8 2 32 10 52 19 21 8 40
15 42 15 3 1 21 7 40 15 19 8 35 12 35 9 0 -3 7 0 15 7 8 7 15 10 15 6 0 -3
12 -1 28 5 15 6 34 12 42 14 123 26 172 35 210 40 52 7 85 13 85 15 0 1 33 4
74 6 41 2 76 5 77 7 2 2 259 -1 294 -4z"/>
<path d="M6767 8144 c-2 -3 -15 -7 -28 -9 -13 -2 -36 -18 -51 -35 -25 -27 -28
-38 -28 -105 0 -41 -3 -75 -7 -76 -164 -16 -363 -161 -434 -315 -55 -120 -61
-269 -15 -376 9 -21 17 -41 17 -45 3 -15 61 -94 97 -131 71 -73 176 -136 272
-162 50 -14 55 -15 162 -24 128 -12 138 -14 204 -45 80 -37 128 -81 159 -145
30 -62 38 -115 24 -173 -11 -50 -67 -143 -86 -143 -7 0 -17 -9 -23 -20 -6 -11
-17 -20 -25 -20 -8 0 -15 -4 -15 -10 0 -5 -6 -10 -12 -10 -7 0 -26 -7 -42 -15
-41 -22 -71 -27 -159 -31 -206 -8 -362 113 -381 296 -5 46 -12 60 -41 88 -19
18 -35 31 -35 28 0 -3 -11 -1 -25 4 -15 6 -26 6 -30 -1 -4 -5 -10 -7 -15 -4
-5 3 -25 -11 -44 -30 -33 -33 -36 -41 -36 -93 0 -31 7 -81 14 -109 15 -57 72
-162 109 -204 37 -42 137 -119 152 -119 8 0 15 -3 15 -8 0 -7 78 -38 156 -62
l42 -12 0 -52 c0 -78 10 -113 44 -141 56 -47 151 -22 174 46 4 13 9 49 10 79
3 78 3 80 12 79 4 -1 9 -1 12 0 3 1 19 4 37 5 17 2 69 22 115 45 223 109 338
317 306 551 -12 90 -77 210 -151 281 -50 49 -178 127 -195 119 -2 -1 -13 5
-26 13 -30 20 -101 33 -221 41 -91 6 -135 16 -195 46 -101 51 -162 132 -175
234 -18 129 78 254 235 305 96 32 215 30 281 -5 16 -8 31 -13 33 -12 2 2 26
-12 53 -29 69 -45 119 -121 134 -203 14 -80 26 -105 56 -125 52 -35 107 -26
151 23 23 27 26 40 22 112 -11 216 -206 420 -452 474 -27 6 -28 9 -28 67 0 68
-19 122 -48 138 -34 18 -70 30 -75 25z"/>
</g>
</svg>
