<svg width="80" height="80" viewBox="0 0 80 80" fill="none" xmlns="http://www.w3.org/2000/svg">
<g clip-path="url(#clip0_46_7)">
<g filter="url(#filter0_d_46_7)">
<path d="M55 38.314C55 29.2352 47.3786 22.0429 38.256 23.1041C31.3274 23.9294 25.7846 29.5889 25.0917 36.6633C24.5143 42.087 26.7084 46.9212 30.4036 49.9868C32.0203 51.4016 33.0596 53.4061 33.0596 55.6463V56H46.9167V55.8821C46.9167 53.7598 47.8405 51.6375 49.4572 50.2226C52.806 47.3928 55 43.1482 55 38.314Z" fill="url(#paint0_linear_46_7)"/>
</g>
<path d="M47.4958 36.496L44.0523 34.1741C43.708 33.942 43.134 33.942 42.7897 34.1741L39.9201 36.0317L37.1653 34.1741C36.8209 33.942 36.247 33.942 35.9027 34.1741L32.4591 36.496C32.2296 36.7282 32 36.9604 32 37.3087C32 37.657 32 38.0053 32.2296 38.2375L36.5914 43.6939V56H38.887V43.2296C38.887 42.9974 38.7723 42.7652 38.6575 42.533L34.8696 37.7731L36.5914 36.6121L39.3462 38.4697C39.6905 38.7018 40.2644 38.7018 40.6088 38.4697L43.3636 36.6121L45.0854 37.7731L41.2975 42.533C41.1827 42.7652 41.0679 42.9974 41.0679 43.2296V56H43.3636V43.6939L47.7254 38.2375C47.955 38.0053 48.0698 37.657 47.955 37.3087C47.8402 36.9604 47.7254 36.6121 47.4958 36.496Z" fill="#FFF59D"/>
<path d="M40 60C39.2044 60 38.4413 60.3688 37.8787 61.0251C37.3161 61.6815 37 62.5717 37 63.5C37 64.4283 37.3161 65.3185 37.8787 65.9749C38.4413 66.6312 39.2044 67 40 67C40.7956 67 41.5587 66.6312 42.1213 65.9749C42.6839 65.3185 43 64.4283 43 63.5C43 62.5717 42.6839 61.6815 42.1213 61.0251C41.5587 60.3688 40.7956 60 40 60Z" fill="#5C6BC0"/>
<path d="M42.3333 65H37.6667C35.1 65 33 63 33 60.5556V55H47V60.5556C47 63 44.9 65 42.3333 65Z" fill="#9FA8DA"/>
<path d="M47 60.3243L33.4667 62.0541C33.8167 62.8108 34.5167 63.5676 35.3333 64L46.3 62.5946C46.7667 61.9459 47 61.1892 47 60.3243ZM33 57.8378V60L47 58.1622V56L33 57.8378Z" fill="#5C6BC0"/>
</g>
<defs>
<filter id="filter0_d_46_7" x="-5" y="-7" width="90" height="93" filterUnits="userSpaceOnUse" color-interpolation-filters="sRGB">
<feFlood flood-opacity="0" result="BackgroundImageFix"/>
<feColorMatrix in="SourceAlpha" type="matrix" values="0 0 0 0 0 0 0 0 0 0 0 0 0 0 0 0 0 0 127 0" result="hardAlpha"/>
<feOffset/>
<feGaussianBlur stdDeviation="15"/>
<feColorMatrix type="matrix" values="0 0 0 0 1 0 0 0 0 0.973667 0 0 0 0 0.341667 0 0 0 1 0"/>
<feBlend mode="normal" in2="BackgroundImageFix" result="effect1_dropShadow_46_7"/>
<feBlend mode="normal" in="SourceGraphic" in2="effect1_dropShadow_46_7" result="shape"/>
</filter>
<linearGradient id="paint0_linear_46_7" x1="40" y1="23" x2="40" y2="56" gradientUnits="userSpaceOnUse">
<stop stop-color="#FBC12D"/>
<stop offset="1" stop-color="#FCD778"/>
</linearGradient>
<clipPath id="clip0_46_7">
<rect width="80" height="80" fill="white"/>
</clipPath>
</defs>
</svg>
